<svg version="1.1" viewBox="0.0 0.0 528.0 528.0" fill="none" stroke="none" stroke-linecap="square" stroke-miterlimit="10" xmlns:xlink="http://www.w3.org/1999/xlink" xmlns="http://www.w3.org/2000/svg"><clipPath id="p.0"><path d="m0 0l528.0 0l0 528.0l-528.0 0l0 -528.0z" clip-rule="nonzero"/></clipPath><g clip-path="url(#p.0)"><path fill="#000000" fill-opacity="0.0" d="m0 0l528.0 0l0 528.0l-528.0 0z" fill-rule="evenodd"/><path fill="#000000" fill-opacity="0.0" d="m118.50394 303.29135c28.63089 -76.33244 95.99533 -132.96959 155.16272 -189.05513" fill-rule="evenodd"/><path stroke="#000000" stroke-width="1.0" stroke-linejoin="round" stroke-linecap="butt" d="m118.50394 303.29135c28.63089 -76.33244 95.99533 -132.96959 155.16272 -189.05513" fill-rule="evenodd"/><path fill="#000000" fill-opacity="0.0" d="m265.38058 358.2756c18.60675 -57.880524 45.907043 -112.59798 69.29657 -168.71655" fill-rule="evenodd"/><path stroke="#000000" stroke-width="3.0" stroke-linejoin="round" stroke-linecap="butt" d="m265.38058 358.2756c18.60675 -57.880524 45.907043 -112.59798 69.29657 -168.71655" fill-rule="evenodd"/><path fill="#000000" fill-opacity="0.0" d="m178.76115 142.10498c48.670975 -29.864784 101.76326 -53.606514 156.6693 -69.29396" fill-rule="evenodd"/><path stroke="#990000" stroke-width="24.0" stroke-linejoin="round" stroke-linecap="butt" d="m178.76115 142.10498c48.670975 -29.864784 101.76326 -53.606514 156.6693 -69.29396" fill-rule="evenodd"/><path fill="#000000" fill-opacity="0.0" d="m275.9265 415.51968c52.680145 -90.31009 89.95477 -189.27632 145.37009 -277.9344" fill-rule="evenodd"/><path stroke="#ff00ff" stroke-width="3.0" stroke-linejoin="round" stroke-linecap="butt" stroke-dasharray="12.0,9.0,3.0,9.0" d="m275.9265 415.51968c52.680145 -90.31009 89.95477 -189.27632 145.37009 -277.9344" fill-rule="evenodd"/><path fill="#000000" fill-opacity="0.0" d="m87.62467 367.31497c23.080757 -19.783112 51.370583 -32.658875 78.333336 -46.69818c54.391556 -28.321259 107.495575 -61.48654 166.45932 -78.33333" fill-rule="evenodd"/><path stroke="#000000" stroke-width="8.0" stroke-linejoin="round" stroke-linecap="butt" stroke-dasharray="8.0,24.0" d="m87.62467 367.31497c23.080757 -19.783112 51.370583 -32.658875 78.333336 -46.69818c54.391556 -28.321259 107.495575 -61.48654 166.45932 -78.33333" fill-rule="evenodd"/><path fill="#000000" fill-opacity="0.0" d="m364.0525 353.00525c-39.282806 26.187286 -71.74289 61.86975 -111.47507 87.37009c-24.217728 15.54306 -52.301636 24.915192 -75.32283 42.18109" fill-rule="evenodd"/><path stroke="#000000" stroke-width="1.0" stroke-linejoin="round" stroke-linecap="butt" d="m364.0525 353.00525c-39.282806 26.187286 -71.74289 61.86975 -111.47507 87.37009c-24.217728 15.54306 -52.301636 24.915192 -75.32283 42.18109" fill-rule="evenodd"/><path fill="#000000" fill-opacity="0.0" d="m147.12599 323.6299c52.526978 48.771545 110.770706 91.13083 168.71916 133.3176c14.583801 10.617096 31.685364 18.126312 44.44095 30.881897" fill-rule="evenodd"/><path stroke="#00ff00" stroke-width="8.0" stroke-linejoin="round" stroke-linecap="butt" d="m147.12599 323.6299c52.526978 48.771545 110.770706 91.13083 168.71916 133.3176c14.583801 10.617096 31.685364 18.126312 44.44095 30.881897" fill-rule="evenodd"/><path fill="#000000" fill-opacity="0.0" d="m458.2017 460.7139c-3.4246216 -51.36557 -6.434082 -103.80408 3.0131226 -154.40942c4.023224 -21.550934 -0.4364624 -48.51892 15.065613 -64.02101" fill-rule="evenodd"/><path stroke="#000000" stroke-width="1.0" stroke-linejoin="round" stroke-linecap="butt" d="m458.2017 460.7139c-3.4246216 -51.36557 -6.434082 -103.80408 3.0131226 -154.40942c4.023224 -21.550934 -0.4364624 -48.51892 15.065613 -64.02101" fill-rule="evenodd"/><path fill="#000000" fill-opacity="0.0" d="m449.91602 426.81976c-2.0726624 -5.7047424 -1.5663757 -12.475952 -3.010498 -13.5590515c-9.136475 -6.8523254 -19.507874 11.950073 -28.62204 18.832031c-20.03653 15.129272 -40.82538 29.293182 -60.257233 45.19159c-8.248657 6.748749 -13.816559 17.076263 -23.34909 21.84253c-2.7129517 1.3564758 -3.766388 -5.2502747 -3.766388 -8.283478" fill-rule="evenodd"/><path stroke="#000000" stroke-width="12.0" stroke-linejoin="round" stroke-linecap="butt" stroke-dasharray="12.0,36.0" d="m449.91602 426.81976c-2.0726624 -5.7047424 -1.5663757 -12.475952 -3.010498 -13.5590515c-9.136475 -6.8523254 -19.507874 11.950073 -28.62204 18.832031c-20.03653 15.129272 -40.82538 29.293182 -60.257233 45.19159c-8.248657 6.748749 -13.816559 17.076263 -23.34909 21.84253c-2.7129517 1.3564758 -3.766388 -5.2502747 -3.766388 -8.283478" fill-rule="evenodd"/><path fill="#000000" fill-opacity="0.0" d="m392.67453 337.93964c19.184845 11.878296 36.65973 26.365295 55.73755 38.414703c21.916595 13.842346 56.753906 49.35962 72.3071 28.62204" fill-rule="evenodd"/><path stroke="#000000" stroke-width="1.0" stroke-linejoin="round" stroke-linecap="butt" d="m392.67453 337.93964c19.184845 11.878296 36.65973 26.365295 55.73755 38.414703c21.916595 13.842346 56.753906 49.35962 72.3071 28.62204" fill-rule="evenodd"/><path fill="#000000" fill-opacity="0.0" d="m474.021 322.12335c-32.010986 -55.05829 -70.049866 -114.07085 -70.049866 -177.75853" fill-rule="evenodd"/><path stroke="#999999" stroke-width="3.0" stroke-linejoin="round" stroke-linecap="butt" d="m464.92795 306.589l-0.032684326 -0.055633545c-1.0235596 -1.7439575 -2.0489807 -3.4918213 -3.0748901 -5.243622c-4.103668 -7.007263 -8.215454 -14.077728 -12.249298 -21.212769c-8.0677185 -14.270111 -15.823578 -28.798676 -22.579102 -43.596863c-6.7555847 -14.798187 -12.510803 -29.866028 -16.577118 -45.21483c-2.033142 -7.6743927 -3.6440735 -15.419022 -4.746704 -23.235306c-0.1378479 -0.9770355 -0.2677307 -1.9551849 -0.38952637 -2.9344482c-0.06085205 -0.48965454 -0.11975098 -0.9795685 -0.17654419 -1.4697571l-0.14379883 -1.2880249" fill-rule="evenodd"/><path fill="#999999" stroke="#999999" stroke-width="3.0" stroke-linecap="butt" d="m460.6515 309.09222l11.153992 9.246185l-2.6011047 -14.2526245z" fill-rule="evenodd"/><path fill="#999999" stroke="#999999" stroke-width="3.0" stroke-linecap="butt" d="m409.906 162.066l-5.6943665 -13.322052l-4.201111 13.865555z" fill-rule="evenodd"/><path fill="#000000" fill-opacity="0.0" d="m414.51706 57.745407c-39.533386 73.41911 -132.24734 102.33833 -204.12073 144.61679" fill-rule="evenodd"/><path stroke="#0c343d" stroke-width="4.0" stroke-linejoin="round" stroke-linecap="butt" d="m406.6857 70.725975l-0.1862793 0.2781601c-2.868225 4.255165 -5.9261475 8.350624 -9.15564 12.300514c-6.4589844 7.8997803 -13.60437 15.217239 -21.291534 22.065407c-15.374329 13.69635 -32.915894 25.515488 -51.46805 36.361496c-18.552155 10.845993 -38.11496 20.718857 -57.5318 30.522614c-9.708435 4.901886 -19.380356 9.7864685 -28.871216 14.76683c-4.745453 2.490158 -9.445618 5.0042725 -14.082443 7.556427l-0.52471924 0.2898407" fill-rule="evenodd"/><path stroke="#0c343d" stroke-width="4.0" stroke-linecap="butt" d="m401.05164 67.32687l6.798218 -11.268093l11.268097 6.7982063l-6.798218 11.268097l-11.268097 -6.79821z" fill-rule="nonzero"/><path fill="#0c343d" stroke="#0c343d" stroke-width="4.0" stroke-linecap="butt" d="m212.13481 201.37343c-1.7966309 -3.1588593 -0.6923218 -7.176056 2.4665222 -8.972687c3.1588593 -1.7966156 7.176071 -0.6923218 8.972687 2.4665375c1.7966309 3.158844 0.6923218 7.176056 -2.4665375 8.972687c-3.158844 1.7966156 -7.176056 0.6923065 -8.9726715 -2.4665375z" fill-rule="nonzero"/><path fill="#000000" fill-opacity="0.0" d="m29.627296 79.8399c40.644188 -5.8070374 77.32974 -27.618805 115.99474 -41.427822c20.225967 -7.2236023 61.566055 -20.702234 76.0735 -25.608925c10.118332 -3.4222107 21.822433 -5.2502594 29.37532 -12.803149" fill-rule="evenodd"/><path stroke="#ff9900" stroke-width="8.0" stroke-linejoin="round" stroke-linecap="butt" d="m29.627296 79.8399c40.644188 -5.8070374 77.32974 -27.618805 115.99474 -41.427822c20.225967 -7.2236023 61.566055 -20.702234 76.0735 -25.608925c10.118332 -3.4222107 21.822433 -5.2502594 29.37532 -12.803149" fill-rule="evenodd"/><path fill="#000000" fill-opacity="0.0" d="m63.519684 211.40158c31.347046 -36.74794 68.74457 -68.024506 100.17848 -104.698166c13.926773 -16.248245 33.141724 -33.58425 33.141724 -54.984253" fill-rule="evenodd"/><path stroke="#ffd966" stroke-width="24.0" stroke-linejoin="round" stroke-linecap="butt" d="m63.519684 211.40158c31.347046 -36.74794 68.74457 -68.024506 100.17848 -104.698166c13.926773 -16.248245 33.141724 -33.58425 33.141724 -54.984253" fill-rule="evenodd"/><path fill="#000000" fill-opacity="0.0" d="m38.664043 154.91077c13.1842 28.563217 29.09811 56.062134 39.16798 85.866135c20.975624 62.082016 24.2771 135.42598 0.75328064 196.58794" fill-rule="evenodd"/><path stroke="#6fa8dc" stroke-width="2.0" stroke-linejoin="round" stroke-linecap="butt" stroke-dasharray="16.0,6.0" d="m38.664043 154.91077c13.1842 28.563217 29.09811 56.062134 39.16798 85.866135c20.975624 62.082016 24.2771 135.42598 0.75328064 196.58794" fill-rule="evenodd"/><path fill="#000000" fill-opacity="0.0" d="m156.91864 138.33858c61.246185 29.798264 123.57092 62.56044 171.73227 110.72179" fill-rule="evenodd"/><path stroke="#4a86e8" stroke-width="2.0" stroke-linejoin="round" stroke-linecap="butt" d="m156.91864 138.33858c61.246185 29.798264 123.57092 62.56044 171.73227 110.72179" fill-rule="evenodd"/><path fill="#000000" fill-opacity="0.0" d="m505.65353 41.929134c-22.385376 34.198856 -50.982056 64.01341 -73.81363 97.916c-24.722992 36.71115 -35.94394 80.92723 -55.73755 120.51445" fill-rule="evenodd"/><path stroke="#000000" stroke-width="1.0" stroke-linejoin="round" stroke-linecap="butt" d="m505.65353 41.929134c-22.385376 34.198856 -50.982056 64.01341 -73.81363 97.916c-24.722992 36.71115 -35.94394 80.92723 -55.73755 120.51445" fill-rule="evenodd"/><path fill="#000000" fill-opacity="0.0" d="m168.21785 236.25722c10.694519 18.731735 32.451935 28.488205 49.71129 41.425186" fill-rule="evenodd"/><path stroke="#000000" stroke-width="16.0" stroke-linejoin="round" stroke-linecap="butt" d="m209.82196 271.97552l1.4544678 0.9808655c2.2675781 1.5414734 4.495285 3.1088867 6.65271 4.726013" fill-rule="evenodd"/><path fill="#000000" stroke="#000000" stroke-width="16.0" stroke-linecap="butt" d="m209.82195 271.97556l25.373016 -1.9313965l-49.229935 -18.550476l25.788315 45.85489z" fill-rule="evenodd"/><path fill="#000000" fill-opacity="0.0" d="m245.04462 239.27034c40.924164 -39.633194 85.06409 -75.88747 129.55118 -111.47507" fill-rule="evenodd"/><path stroke="#000000" stroke-width="1.0" stroke-linejoin="round" stroke-linecap="butt" d="m245.04462 239.27034c40.924164 -39.633194 85.06409 -75.88747 129.55118 -111.47507" fill-rule="evenodd"/><path fill="#000000" fill-opacity="0.0" d="m50.716534 400.4567c3.8627357 32.444275 5.147949 65.24863 4.5196877 97.916016c-0.18370819 9.552124 5.249058 21.866425 -1.5065613 28.62204" fill-rule="evenodd"/><path stroke="#ff9900" stroke-width="24.0" stroke-linejoin="round" stroke-linecap="butt" d="m50.716534 400.4567c3.8627357 32.444275 5.147949 65.24863 4.5196877 97.916016c-0.18370819 9.552124 5.249058 21.866425 -1.5065613 28.62204" fill-rule="evenodd"/><path fill="#000000" fill-opacity="0.0" d="m151.64568 457.70078c-17.053223 -11.53717 -32.814377 -24.882446 -48.958008 -37.661407c-12.176834 -9.638916 -29.666466 -13.530518 -38.414703 -26.362213c-16.732239 -24.54242 -27.441505 -53.28308 -34.645668 -82.09973" fill-rule="evenodd"/><path stroke="#000000" stroke-width="1.0" stroke-linejoin="round" stroke-linecap="butt" d="m151.64568 457.70078c-17.053223 -11.53717 -32.814377 -24.882446 -48.958008 -37.661407c-12.176834 -9.638916 -29.666466 -13.530518 -38.414703 -26.362213c-16.732239 -24.54242 -27.441505 -53.28308 -34.645668 -82.09973" fill-rule="evenodd"/></g></svg>